<svg xmlns="http://www.w3.org/2000/svg" width="40" height="40.262" viewBox="0 0 40 40.262">
  <g id="Group_81" data-name="Group 81" transform="translate(3882 -7381.99)">
    <g id="Group_80" data-name="Group 80" transform="translate(-3882 7381.99)">
      <path id="Path_27" data-name="Path 27" d="M-3842,7401.851a20.18,20.18,0,0,0-2.6-9.645,20.312,20.312,0,0,0-6.051-6.643,20.033,20.033,0,0,0-8.489-3.358,20.31,20.31,0,0,0-2.209-.2v-.014l-.649,0h0l-.65,0V7382a20.232,20.232,0,0,0-2.207.2,20.034,20.034,0,0,0-8.491,3.358,20.3,20.3,0,0,0-6.05,6.643,20.187,20.187,0,0,0-2.6,9.645c0,.091,0,.182,0,.271a20.21,20.21,0,0,0,2.489,9.718,20.15,20.15,0,0,0,14.837,10.227,20.229,20.229,0,0,0,2.022.171v.016h1.3v-.016a20.18,20.18,0,0,0,2.022-.171,20.016,20.016,0,0,0,9.832-4.264l-.741-1.08a18.379,18.379,0,0,1-2.076,1.471l-1.577,2.2-.229-1.218a18.669,18.669,0,0,1-3.35,1.2,26.085,26.085,0,0,0,2.921-3.491l-.346-1.842a24.843,24.843,0,0,1-4.8,5.626c-.547.068-1.1.113-1.656.135v-8.624h5.92l-.245-1.308h-5.676v-8.354h10.159a24.573,24.573,0,0,1-.52,4.618l1.173.733a25.858,25.858,0,0,0,.65-5.352h6.578a18.856,18.856,0,0,1-2.141,8.354h-.283l1.322.825a20.2,20.2,0,0,0,2.41-9.572C-3842,7402.03-3842,7401.941-3842,7401.851Zm-24.7-17.934a26.122,26.122,0,0,0-5.332,7.958h-5.636A18.926,18.926,0,0,1-3866.707,7383.917Zm-11.743,9.266h5.895a25.687,25.687,0,0,0-1.548,8.024h-6.571A18.851,18.851,0,0,1-3878.45,7393.183Zm-2.242,9.332h6.578a25.806,25.806,0,0,0,1.534,8.354h-5.972A18.849,18.849,0,0,1-3880.691,7402.515Zm2.895,9.661h5.731a26.152,26.152,0,0,0,5.532,8.2A18.873,18.873,0,0,1-3877.8,7412.176Zm15.145,8.624c-.554-.021-1.109-.066-1.656-.135a24.818,24.818,0,0,1-6.333-8.489h7.99Zm0-9.932h-8.535a24.4,24.4,0,0,1-1.624-8.354h10.159Zm0-9.661H-3872.8a24.364,24.364,0,0,1,1.635-8.024h8.512Zm0-9.332h-7.962a24.881,24.881,0,0,1,6.131-8.274c.606-.081,1.218-.134,1.831-.157Zm16.326,0h-5.636a26.078,26.078,0,0,0-5.333-7.959A18.937,18.937,0,0,1-3846.326,7391.875Zm-15.023-8.432c.613.023,1.227.076,1.831.157a24.883,24.883,0,0,1,6.132,8.274h-7.963Zm0,17.764v-8.024h8.512a24.383,24.383,0,0,1,1.636,8.024Zm11.453,0a25.683,25.683,0,0,0-1.549-8.024h5.895a18.851,18.851,0,0,1,2.225,8.024Zm2.057,13.182.757,1.115a20.047,20.047,0,0,0,1.58-2.018l-2.02.521Q-3847.678,7414.2-3847.84,7414.389Z" transform="translate(3882 -7381.99)" fill="#1f1f1f"/>
    </g>
    <path id="Path_28" data-name="Path 28" d="M-3676.459,7571.179c-.917,1.278-1.793,2.5-2.739,3.813l-2.437-13c3.75,2.341,7.407,4.627,11.229,7.016l-4.62,1.194c1.316,1.941,2.569,3.787,3.852,5.678l-1.4.975C-3673.87,7574.957-3675.145,7573.1-3676.459,7571.179Z" transform="translate(-174.259 -156.547)" fill="#1f1f1f"/>
  </g>
</svg>
