<svg xmlns="http://www.w3.org/2000/svg" width="55.801" height="31.176" viewBox="0 0 55.801 31.176">
  <g id="Group_82" data-name="Group 82" transform="translate(3905.689 -7329.468)">
    <path id="Path_29" data-name="Path 29" d="M-3797.831,7438.392c-.236,0-.472,0-.708,0l-.712,0h-22.906c-.574,0-.732-.074-.775-.12s-.116-.238-.1-.8a13.4,13.4,0,0,1,12.19-12.805c.36-.026.724-.039,1.081-.039a13.323,13.323,0,0,1,8.676,3.083,13.563,13.563,0,0,1,4.613,8.1,13.827,13.827,0,0,1,.169,2.009.669.669,0,0,1-.093.447.69.69,0,0,1-.455.121C-3797.143,7438.387-3797.452,7438.392-3797.831,7438.392Zm-11.94-12.969c-.324,0-.655.012-.984.034a13.458,13.458,0,0,0-9.01,5.041,8.82,8.82,0,0,0-2.308,6.568l.062.462h24.825l-.023-.556A12.445,12.445,0,0,0-3809.771,7425.423Z" transform="translate(-67.913 -78.248)" stroke="#1f1f1f" stroke-width="1"/>
    <path id="Path_30" data-name="Path 30" d="M-3783.636,7345.221a7.539,7.539,0,0,1-5.358-2.27,7.576,7.576,0,0,1-2.185-5.428,7.584,7.584,0,0,1,2.265-5.354,7.62,7.62,0,0,1,5.388-2.2h.048a7.536,7.536,0,0,1,5.356,2.286,7.576,7.576,0,0,1,2.2,5.423,7.566,7.566,0,0,1-2.271,5.343,7.642,7.642,0,0,1-5.392,2.2Zm.057-14.437a6.83,6.83,0,0,0-6.782,6.785,6.8,6.8,0,0,0,1.983,4.828,6.738,6.738,0,0,0,4.8,2.015h.016a6.818,6.818,0,0,0,6.8-6.812,6.773,6.773,0,0,0-1.992-4.812,6.722,6.722,0,0,0-4.791-2Z" transform="translate(-94.25)" stroke="#1f1f1f" stroke-width="1"/>
    <path id="Path_31" data-name="Path 31" d="M-3899.715,7454.114l-4.646,0c-.511,0-.672-.091-.723-.146s-.131-.253-.1-.751a10.066,10.066,0,0,1,9.528-9.547c.215-.015.433-.022.647-.022a9.765,9.765,0,0,1,4.751,1.272c.542.3.422.532.365.645-.1.189-.2.215-.3.215a1.028,1.028,0,0,1-.459-.139,9.775,9.775,0,0,0-4.525-1.186,9.124,9.124,0,0,0-4.586,1.29,9.147,9.147,0,0,0-4.556,6.923l-.093.615h2.244l4.1,0c1.369,0,3.171,0,4.971.018a1.11,1.11,0,0,1,.642.208.266.266,0,0,1,.07.27.4.4,0,0,1-.274.3,2.124,2.124,0,0,1-.528.042Z" transform="translate(0 -93.975)" stroke="#1f1f1f" stroke-width="1"/>
    <path id="Path_32" data-name="Path 32" d="M-3875.68,7382.195a5.8,5.8,0,0,1-5.781-5.755,5.759,5.759,0,0,1,5.709-5.788h.044a5.778,5.778,0,0,1,4.12,1.708,5.7,5.7,0,0,1,1.684,4.067,5.789,5.789,0,0,1-5.747,5.768Zm-.012-10.736a4.956,4.956,0,0,0-4.938,4.932,4.953,4.953,0,0,0,1.455,3.538,4.892,4.892,0,0,0,3.485,1.455,4.967,4.967,0,0,0,4.944-4.936,4.941,4.941,0,0,0-1.447-3.535,4.894,4.894,0,0,0-3.495-1.454h0Z" transform="translate(-19.616 -33.633)" stroke="#1f1f1f" stroke-width="1"/>
    <path id="Path_33" data-name="Path 33" d="M-3667.706,7454.114l4.646,0c.511,0,.673-.091.723-.146s.131-.253.1-.751a10.066,10.066,0,0,0-9.529-9.547c-.215-.015-.433-.022-.646-.022a9.769,9.769,0,0,0-4.752,1.272c-.541.3-.422.532-.365.645.1.189.2.215.3.215a1.028,1.028,0,0,0,.458-.139,9.777,9.777,0,0,1,4.525-1.186,9.128,9.128,0,0,1,4.587,1.29,9.147,9.147,0,0,1,4.556,6.923l.093.615h-2.244l-4.1,0c-1.369,0-3.171,0-4.971.018a1.107,1.107,0,0,0-.641.208.266.266,0,0,0-.071.27.406.406,0,0,0,.275.3,2.122,2.122,0,0,0,.528.042Z" transform="translate(-188.156 -93.975)" stroke="#1f1f1f" stroke-width="1"/>
    <path id="Path_34" data-name="Path 34" d="M-3673.665,7382.194a5.79,5.79,0,0,1-5.746-5.768,5.706,5.706,0,0,1,1.684-4.067,5.779,5.779,0,0,1,4.12-1.708h.044a5.759,5.759,0,0,1,5.709,5.788,5.8,5.8,0,0,1-5.781,5.755Zm.038-10.735h0a4.894,4.894,0,0,0-3.495,1.454,4.939,4.939,0,0,0-1.447,3.535,4.967,4.967,0,0,0,4.944,4.936,4.893,4.893,0,0,0,3.485-1.455,4.952,4.952,0,0,0,1.454-3.538,4.956,4.956,0,0,0-4.937-4.932Z" transform="translate(-186.647 -33.633)" stroke="#1f1f1f" stroke-width="1"/>
  </g>
</svg>
